<?xml version="1.0" standalone="no"?>
<!DOCTYPE svg PUBLIC "-//W3C//DTD SVG 20010904//EN"
 "http://www.w3.org/TR/2001/REC-SVG-20010904/DTD/svg10.dtd">
<svg version="1.0" xmlns="http://www.w3.org/2000/svg"
 width="512.000000pt" height="512.000000pt" viewBox="0 0 512.000000 512.000000"
 preserveAspectRatio="xMidYMid meet">
<metadata>
Created by potrace 1.14, written by Peter Selinger 2001-2017
</metadata>
<g transform="translate(0.000000,512.000000) scale(0.100000,-0.100000)"
fill="#000000" stroke="none">
<path d="M947 4298 l-407 -511 0 -1741 c0 -1720 0 -1740 19 -1721 11 11 198
243 415 515 l396 495 0 1738 c0 955 -3 1737 -7 1737 -5 -1 -191 -231 -416
-512z"/>
<path d="M4163 4300 l-413 -515 0 -1738 c0 -1042 4 -1737 9 -1735 5 2 192 231
415 510 l406 508 -2 1742 -3 1743 -412 -515z"/>
<path d="M1640 3872 l0 -782 918 -1310 917 -1309 3 780 2 779 -891 1273 c-491
699 -905 1290 -920 1311 l-29 40 0 -782z"/>
</g>
</svg>
